<svg
  fill="currentColor"
  height="32"
  viewBox="0 0 180 180"
  width="32"
  xmlns="http://www.w3.org/2000/svg"
>
  <g transform="translate(1.5, 15)">
    <path
      d="M20.0117 132.52H145.855V142.012H20.0117V132.52ZM31.6953 50.2773C33.0117 50.4883 34.3555 50.6016 35.7305 50.6016C37.1016 50.6016 38.4492 50.4883 39.7617 50.2773V103.84H31.6953V50.2773ZM16.4297 25.3008C16.4297 14.6562 25.0898 6 35.7305 6C46.3711 6 55.0312 14.6562 55.0312 25.3008C55.0312 35.9414 46.3711 44.6016 35.7305 44.6016C25.0898 44.6016 16.4297 35.9414 16.4297 25.3008ZM73.7305 24.6953H98.6602L90.4883 105.156H81.8984L73.7305 24.6953ZM132.625 51.0078H140.691V105.445H132.625V51.0078ZM120.418 23.2422H152.898V45.0078H120.418V23.2422ZM170.223 142.012H151.855V129.52C151.855 127.863 150.512 126.52 148.855 126.52H139.66V112.969C139.66 112.41 139.496 111.895 139.23 111.445H143.473C145.246 111.445 146.691 109.977 146.691 108.176V51.0078H155.926C157.582 51.0078 158.926 49.6641 158.926 48.0078C158.926 47.8711 158.914 47.7344 158.898 47.6016V20.2422C158.898 18.5859 157.555 17.2422 155.898 17.2422H117.418C115.762 17.2422 114.418 18.5859 114.418 20.2422V48.0078C114.418 49.6641 115.762 51.0078 117.418 51.0078H126.625V108.176C126.625 109.977 128.07 111.445 129.844 111.445H134.086C133.82 111.895 133.66 112.41 133.66 112.969V126.52H89.1367C89.1719 126.332 89.1953 126.133 89.1953 125.934V112.969C89.1953 112.285 88.957 111.66 88.5703 111.156H93.0078C94.707 111.156 96.1055 109.809 96.2188 108.109L104.965 22C105.051 21.1562 104.773 20.3125 104.203 19.6836C103.637 19.0547 102.828 18.6953 101.98 18.6953H70.4102C69.5625 18.6953 68.7539 19.0547 68.1836 19.6836C67.6133 20.3125 67.3398 21.1562 67.4258 22L76.1719 108.109C76.2852 109.809 77.6797 111.156 79.3789 111.156H83.8203C83.4336 111.66 83.1953 112.285 83.1953 112.969V125.934C83.1953 126.133 83.2148 126.332 83.2539 126.52H38.6797C38.707 126.355 38.7305 126.195 38.7305 126.023V111.656C38.7305 110.969 38.4922 110.344 38.1055 109.84H42.543C44.3164 109.84 45.7617 108.375 45.7617 106.57V48.5195C54.7344 44.6289 61.0312 35.6875 61.0312 25.3008C61.0312 11.3477 49.6836 0 35.7305 0C21.7773 0 10.4297 11.3477 10.4297 25.3008C10.4297 35.6875 16.7227 44.6289 25.6953 48.5195V106.57C25.6953 108.375 27.1406 109.84 28.9141 109.84H33.3555C32.9687 110.344 32.7305 110.969 32.7305 111.656V126.023C32.7305 126.195 32.7539 126.355 32.7812 126.52H17.0117C15.3516 126.52 14.0117 127.863 14.0117 129.52V142.012H3C1.34375 142.012 0 143.352 0 145.012C0 146.668 1.34375 148.012 3 148.012H170.223C171.879 148.012 173.223 146.668 173.223 145.012C173.223 143.352 171.879 142.012 170.223 142.012Z"/>
  </g>
</svg>
