<svg fill="currentColor" height="32" viewBox="0 0 32 32" width="32" xmlns="http://www.w3.org/2000/svg">
  <path clip-rule="evenodd"
        d="M16.0653 5.25888C12.1955 5.25888 9.85958 6.51273 8.58097 7.5639C6.96164 8.89643 6.38708 10.4039 6.38708 11.2896C6.38708 11.8611 6.58447 12.1506 6.97359 12.1506H25.1571C25.5462 12.1506 25.7442 11.8611 25.7442 11.2896C25.7442 10.4039 25.1696 8.89643 23.5497 7.5639C22.2711 6.51273 19.9351 5.25888 16.0653 5.25888ZM25.1558 13.4095H6.97231C5.86909 13.4095 5.12857 12.5579 5.12857 11.2896C5.12857 10.0735 5.82508 8.20027 7.78135 6.59142C9.219 5.40932 11.8221 4 16.064 4C20.306 4 22.9097 5.40932 24.3468 6.59142C26.303 8.20027 27.0002 10.0735 27.0002 11.2896C27.0002 12.5579 26.259 13.4095 25.1558 13.4095ZM25.5249 15.3338C25.8424 15.6831 25.997 15.8379 26.349 15.8379C26.6966 15.8379 26.9776 16.1199 26.9776 16.4674C26.9776 16.8155 26.6966 17.0968 26.349 17.0968C25.4278 17.0968 24.9476 16.5687 24.5964 16.1824L24.5945 16.1804C24.2777 15.831 24.1224 15.6762 23.771 15.6762C23.4196 15.6762 23.265 15.831 22.9476 16.1804L22.945 16.1832C22.5938 16.5694 22.1143 17.0968 21.1937 17.0968C20.2715 17.0968 19.7913 16.5668 19.4411 16.1797C19.1243 15.8304 18.9696 15.6762 18.6195 15.6762C18.2694 15.6762 18.1147 15.8304 17.7985 16.1797C17.4484 16.5668 16.9681 17.0968 16.0466 17.0968C15.125 17.0968 14.6447 16.5668 14.294 16.1797C13.9778 15.8304 13.8238 15.6762 13.4742 15.6762C13.1241 15.6762 12.9695 15.8304 12.6526 16.1797C12.3025 16.5668 11.8229 17.0968 10.9007 17.0968C9.97849 17.0968 9.49822 16.5668 9.14871 16.1797C8.83188 15.8304 8.67724 15.6762 8.3271 15.6762C7.97696 15.6762 7.82232 15.8304 7.50549 16.1797C7.15598 16.5668 6.67571 17.0968 5.75353 17.0968C5.40653 17.0968 5.12491 16.8155 5.12491 16.4674C5.12491 16.1199 5.40653 15.8379 5.75353 15.8379C6.10367 15.8379 6.25831 15.6837 6.57514 15.3344C6.92528 14.9473 7.40491 14.4173 8.3271 14.4173C9.24929 14.4173 9.72955 14.9473 10.0791 15.3344C10.3959 15.6837 10.5505 15.8379 10.9007 15.8379C11.2502 15.8379 11.4055 15.6837 11.7217 15.3344C12.0718 14.9473 12.5521 14.4173 13.4742 14.4173C14.3952 14.4173 14.8754 14.9473 15.2262 15.3344C15.5424 15.6837 15.697 15.8379 16.0466 15.8379C16.3967 15.8379 16.5507 15.6837 16.8669 15.3344L16.8676 15.3336C17.2183 14.9466 17.6979 14.4173 18.6195 14.4173C19.5417 14.4173 20.0213 14.9473 20.3715 15.3344C20.6883 15.6831 20.8429 15.8379 21.1937 15.8379C21.5445 15.8379 21.6997 15.6831 22.0166 15.3338L22.0177 15.3325C22.369 14.9461 22.8498 14.4173 23.771 14.4173C24.6939 14.4173 25.1741 14.9466 25.5249 15.3338ZM6.72747 19.303C6.46848 19.303 6.25726 19.5145 6.25726 19.7738V20.0564C6.25726 20.3158 6.46848 20.5272 6.72747 20.5272H25.1014C25.3604 20.5272 25.5716 20.3158 25.5716 20.0564V19.7738C25.5716 19.5145 25.3604 19.303 25.1014 19.303H6.72747ZM25.1014 21.7865H6.72745C5.77446 21.7865 5 21.011 5 20.0568V19.7741C5 18.8199 5.77446 18.0444 6.72745 18.0444H25.1014C26.0538 18.0444 26.8288 18.8199 26.8288 19.7741V20.0568C26.8288 21.011 26.0538 21.7865 25.1014 21.7865ZM25.289 26.3801C25.0571 26.6231 24.7094 26.7408 24.2273 26.7408H7.78762C7.30547 26.7408 6.95784 26.6231 6.72651 26.3801C6.35185 25.988 6.32356 25.3182 6.33991 24.9532C6.36945 24.2979 7.18351 24.291 7.21809 24.291H24.7975C24.8314 24.291 25.6448 24.2979 25.675 24.9532C25.692 25.3182 25.6637 25.9873 25.289 26.3801ZM24.7978 23.0324H7.21847C6.2001 23.0324 5.13962 23.6726 5.0843 24.8975C5.0535 25.5873 5.15534 26.5561 5.81727 27.2503C6.29251 27.7482 6.9557 28 7.788 28H24.2277C25.06 28 25.7225 27.7476 26.1978 27.2503C26.861 26.5554 26.9628 25.5867 26.9314 24.8968C26.8748 23.6726 25.8156 23.0324 24.7978 23.0324Z"
        fill-rule="evenodd"></path>
</svg>
