<svg fill="currentColor" height="32" viewBox="0 0 32 32" width="32" xmlns="http://www.w3.org/2000/svg">
  <path clip-rule="evenodd"
        d="M7.45638 3.99557C8.08795 3.72094 8.65548 3.92013 9.17952 4.42154C9.23843 4.47791 9.28884 4.52947 9.3421 4.58783L9.61519 4.90352C9.62561 4.91484 9.69468 4.93593 9.78065 4.93404C9.81995 4.93313 9.85666 4.92759 9.88687 4.92093L9.95403 4.90106C9.96067 4.89835 9.96469 4.89623 9.96562 4.89514C10.6305 4.09216 11.7981 3.71989 12.7112 4.1601C13.3966 4.49065 13.8491 5.12554 13.9508 5.89777C14.0542 6.68167 13.7894 7.51017 13.2242 8.21168L13.1399 8.30902L13.2321 8.4464C13.464 8.8187 13.6335 9.22689 13.7326 9.65197L13.7835 9.90889L13.8386 10.309L14.1879 12.2934L14.7036 15.0791L14.7771 15.4422C14.8478 15.7659 15.042 16.0399 15.3049 16.2599C15.3194 16.272 15.3336 16.2767 15.3474 16.2765L15.3807 16.2695L15.3791 16.2764L15.3896 16.26C15.6258 14.5517 16.503 13.0374 17.8604 11.9952C19.2218 10.9498 20.9056 10.5036 22.5984 10.7395C23.6864 10.8908 24.7216 11.3245 25.5917 11.9932C27.4317 13.4074 28.3792 15.7235 28.0649 18.0374C28.0167 18.3908 27.6934 18.639 27.3432 18.5899C26.993 18.541 26.7485 18.2145 26.7966 17.8616C27.0481 16.0082 26.2891 14.1532 24.8163 13.0212C24.1214 12.487 23.2939 12.1406 22.4231 12.0192C21.0688 11.8307 19.7237 12.1871 18.6345 13.0234C17.6823 13.7544 17.0244 14.7762 16.7502 15.9385L16.6973 16.1897L16.6556 16.4498C16.6492 16.4909 16.6448 16.5141 16.6355 16.553C16.528 16.9994 16.2052 17.3531 15.7723 17.4986C15.3293 17.6477 14.8487 17.5564 14.4888 17.255C14.0185 16.861 13.6652 16.3517 13.5275 15.7197L13.4649 15.4101L13.0187 13.0169L12.5969 10.6402L12.5435 10.294C12.4755 9.58133 12.117 8.91591 11.5601 8.46876C10.9971 8.01661 10.289 7.82205 9.56466 7.92065C8.37692 8.0829 7.48006 9.0003 7.33103 10.2067C7.18966 11.3495 7.74931 12.4173 8.75747 12.9301C8.85079 12.9776 8.94698 13.0195 9.04402 13.0549L9.18997 13.1032C9.33193 13.1412 9.45716 13.2267 9.54434 13.3481C9.72946 13.6049 9.70245 13.9593 9.4803 14.1843C8.20624 15.4743 7.50557 17.189 7.50678 19.014C7.50798 20.7823 8.1851 22.4636 9.41376 23.7484C10.6423 25.0335 12.2783 25.7718 14.0217 25.8284C16.2412 25.9008 18.3532 24.8626 19.6706 23.0516C19.8802 22.7637 20.2819 22.7019 20.5665 22.9143C20.8504 23.1261 20.911 23.5302 20.7022 23.8171C19.1887 25.8982 16.789 27.1249 14.2383 27.1249L13.9809 27.1207C11.903 27.0538 9.95369 26.1749 8.49292 24.647C7.03308 23.12 6.22806 21.1198 6.2264 19.0155C6.22484 17.2253 6.79291 15.5175 7.85056 14.1102L7.96389 13.964L7.87323 13.9114C7.44535 13.6429 7.07536 13.2953 6.77928 12.8842L6.63748 12.6735L6.50844 12.4526L6.45089 12.342L4.51375 12.3425C4.36455 12.3425 4.22239 12.2899 4.10976 12.1973L4.03118 12.1206L3.97568 12.046C3.901 11.929 3.86648 11.7917 3.87678 11.6489L3.89298 11.5409L3.93051 11.4299L4.39966 10.3811C4.54548 10.0555 4.92504 9.91069 5.2475 10.0587C5.49883 10.1741 5.64392 10.4356 5.6185 10.7108L5.60085 10.8144L5.56612 10.9135L5.50489 11.049H6.06089L6.05063 10.9675C6.03494 10.8156 6.02787 10.6627 6.02947 10.5092L6.03838 10.2786L6.06032 10.0475C6.16846 9.17415 6.54527 8.38487 7.14951 7.76663C7.75431 7.14783 8.53058 6.75818 9.3929 6.64042C10.3844 6.50529 11.3594 6.74348 12.1638 7.31274L12.2459 7.37402L12.2947 7.31567C12.521 7.01159 12.6553 6.68684 12.6861 6.37505L12.6928 6.2204L12.682 6.06884C12.6375 5.72989 12.453 5.46901 12.1597 5.32747C11.8623 5.18419 11.3793 5.29709 11.0431 5.62166L10.947 5.72533C10.6951 6.02903 10.2731 6.21475 9.81652 6.22686C9.3638 6.23809 8.94881 6.07837 8.67809 5.78461L8.54614 5.63231C8.22934 5.25562 8.06576 5.13821 7.96216 5.18317C7.73351 5.28259 7.69423 5.32596 7.7008 5.60039L7.71415 5.88429C7.7586 6.72229 7.15968 7.43885 6.34965 7.51255L6.13996 7.53087L5.97413 7.55228C5.84668 7.5765 5.82215 7.61374 5.79107 7.70548C5.70692 7.95412 5.81251 8.21445 5.9543 8.39116L6.01683 8.46149C6.26788 8.7121 6.27055 9.12082 6.0229 9.37465C5.90107 9.49951 5.73733 9.56738 5.56705 9.56738C5.39942 9.56738 5.23813 9.50168 5.11684 9.38037C4.60978 8.87405 4.3189 8.05893 4.57997 7.2871C4.75016 6.7842 5.06641 6.48857 5.49894 6.34515C5.65548 6.29324 5.78817 6.26772 5.98843 6.24664L6.23493 6.22445C6.31611 6.21711 6.3857 6.15929 6.41748 6.08068L6.43381 6.01829L6.43661 5.95315L6.43292 5.88838C6.37922 4.93141 6.57026 4.38077 7.45638 3.99557ZM20.4001 19.0838C20.6761 18.8596 21.0797 18.9039 21.301 19.1827C21.9578 20.0094 22.393 20.9593 22.5945 22.0057C22.7698 22.9166 22.7539 23.8538 22.5483 24.7169C22.4788 25.0086 22.2203 25.2121 21.9265 25.2121C21.8755 25.2121 21.8251 25.2061 21.7756 25.194C21.4322 25.11 21.2213 24.7607 21.3038 24.4144C21.6416 22.9945 21.3351 21.2916 20.3024 19.9917C20.0819 19.7135 20.1255 19.3074 20.4001 19.0838ZM22.8004 17.5364C22.5336 17.3013 22.1284 17.3297 21.8964 17.5997C21.6651 17.8687 21.693 18.2764 21.9589 18.5107C23.2016 19.6058 23.8001 21.2276 23.7143 22.6847C23.6935 23.0406 23.9622 23.347 24.3151 23.3681L24.3536 23.3692C24.6917 23.3692 24.972 23.1028 24.9922 22.7612C25.044 21.8744 24.8965 20.9494 24.5653 20.0845C24.1854 19.0912 23.5913 18.2336 22.8004 17.5364ZM10.8151 18.0241C11.1689 18.0241 11.455 18.3138 11.455 18.6705C11.455 20.1923 12.6775 21.4301 14.1788 21.4301C14.8761 21.4301 15.5391 21.1635 16.0464 20.6792C16.304 20.4333 16.7098 20.4453 16.9524 20.7059C17.1943 20.9652 17.1824 21.3734 16.926 21.6185C16.1801 22.3306 15.2044 22.723 14.1788 22.723C11.9705 22.723 10.1751 20.905 10.1751 18.6705C10.1751 18.3138 10.4612 18.0241 10.8151 18.0241ZM24.4472 15.8012C24.1686 15.5804 23.7654 15.6306 23.5477 15.9128C23.3307 16.1936 23.3799 16.5993 23.658 16.8192C24.9562 17.8464 25.6383 19.4333 25.6291 20.8936C25.6271 21.2511 25.9119 21.5421 26.2684 21.5441L26.3724 21.5353L26.473 21.5089C26.7314 21.4193 26.9071 21.1793 26.9091 20.9019C26.9149 20.0143 26.7192 19.0981 26.3432 18.2513C25.9108 17.2792 25.2726 16.4544 24.4472 15.8012Z"
        fill-rule="evenodd"></path>
</svg>
