<svg fill="currentColor" height="56" viewBox="0 0 28 56" width="28" xmlns="http://www.w3.org/2000/svg">
  <path clip-rule="evenodd"
        d="M27.1733 11.1815C25.1734 9.04255 19.6538 8.20297 14.8742 8.10302V4.20488L23.4335 2.40574C24.0935 2.26581 24.5135 1.62613 24.3735 0.966449C24.2335 0.306766 23.5935 -0.113035 22.9336 0.0268981L13.4143 2.02594C12.8543 2.14588 12.4544 2.64564 12.4544 3.22536V8.123C7.27477 8.30291 0.11532 9.44236 0.11532 12.8407C0.11532 12.9007 0.11532 12.9807 0.11532 13.0406C0.0153273 13.2405 -0.02467 13.4604 0.0153269 13.7003L4.41499 52.5017C4.45499 52.8415 4.63497 53.1414 4.91495 53.3613C5.05494 53.4612 8.59467 56 14.1542 56C19.7138 56 23.2536 53.4612 23.3935 53.3613C23.6735 53.1614 23.8535 52.8415 23.8935 52.5017L27.9932 13.2605C28.0332 12.7408 27.9132 11.9811 27.1933 11.2015L27.1733 11.1815ZM21.5137 51.6421C20.5138 52.2218 17.834 53.5412 14.1343 53.5412C10.4345 53.5412 7.73474 52.2218 6.75481 51.6421L3.49506 22.8359C3.67505 22.9159 3.83504 23.0158 4.03502 23.1558C4.69497 23.5756 5.49491 24.0953 7.03479 24.0953C8.57467 24.0953 9.37461 23.5756 10.0346 23.1558C10.5545 22.8159 10.9145 22.5961 11.7144 22.5961C12.5144 22.5961 12.8743 22.8159 13.3943 23.1558C14.0543 23.5756 14.8542 24.0953 16.3941 24.0953C17.934 24.0953 18.7339 23.5756 19.3939 23.1558C19.9138 22.8159 20.2538 22.5961 21.0737 22.5961C21.7537 22.5961 22.2936 22.0563 22.2936 21.3766C22.2936 20.697 21.7537 20.1572 21.0737 20.1572C19.5538 20.1572 18.7339 20.677 18.074 21.0968C17.554 21.4366 17.194 21.6565 16.3941 21.6565C15.5941 21.6565 15.2342 21.4366 14.7142 21.0968C14.0543 20.677 13.2543 20.1572 11.7144 20.1572C10.1746 20.1572 9.37461 20.677 8.71466 21.0968C8.1947 21.4366 7.85473 21.6565 7.03479 21.6565C6.21485 21.6565 5.87488 21.4366 5.35492 21.0968C4.83496 20.7569 4.19501 20.3771 3.21508 20.2172L2.71512 15.7993C5.69489 17.1587 10.6345 17.5785 14.0143 17.5785C15.7741 17.5785 17.474 17.4785 19.0939 17.2986C19.7538 17.2186 20.2338 16.6189 20.1538 15.9392C20.0738 15.2596 19.4738 14.7798 18.7939 14.8598C17.274 15.0397 15.6541 15.1196 13.9943 15.1196C7.11479 15.1196 2.87511 13.5804 2.51514 12.8807C2.83511 12.1211 6.47484 10.7617 12.4344 10.5418V12.5409C12.4344 13.2205 12.9743 13.7603 13.6543 13.7603C14.3342 13.7603 14.8742 13.2205 14.8742 12.5409V10.5219C20.4738 10.6218 24.3735 11.7413 25.3934 12.8208C25.4934 12.9407 25.5534 13.0206 25.5534 13.0007L21.5137 51.6021V51.6421Z"
        fill-rule="evenodd"></path>
</svg>
