<svg fill="currentColor" height="32" viewBox="0 0 32 32" width="32" xmlns="http://www.w3.org/2000/svg">
  <path clip-rule="evenodd"
        d="M13.7426 5.02171C13.7752 5.37922 13.5114 5.69635 13.1531 5.72891C12.7922 5.75756 12.4782 5.49773 12.445 5.13892L12.243 2.91314C12.2274 2.74058 12.2808 2.56931 12.3916 2.43647C12.503 2.30362 12.6619 2.22027 12.8352 2.20529L15.1452 2.00277C15.3119 1.98649 15.4911 2.04249 15.624 2.1558C15.7562 2.26911 15.8383 2.43061 15.8513 2.60382L16.2161 7.58742C16.2428 7.94557 15.9731 8.25815 15.6142 8.28419C15.5979 8.2855 15.5823 8.28615 15.566 8.28615C15.2279 8.28615 14.9419 8.02502 14.9172 7.68249L14.6006 3.35791L13.6 3.44582L13.7426 5.02171ZM17.2685 8.32556C17.2828 8.32621 17.2972 8.32686 17.3108 8.32686C17.6515 8.32686 17.9382 8.06247 17.9603 7.71734L18.1629 4.58119L19.1733 4.61635L19.0925 5.93437C19.0704 6.29318 19.344 6.60184 19.7022 6.62398C20.0781 6.65264 20.3706 6.37262 20.3928 6.01381L20.5139 4.02832C20.525 3.85315 20.4644 3.68124 20.3465 3.551C20.228 3.42076 20.0625 3.34457 19.8873 3.33806L17.5766 3.25666C17.2476 3.25405 16.9265 3.51388 16.903 3.86552L16.6601 7.63399C16.6373 7.99279 16.9096 8.30211 17.2685 8.32556ZM22.7744 15.0193C22.4864 14.7731 22.0975 14.5524 21.5588 14.5732C20.8233 14.5901 20.4064 14.9971 20.1256 15.3266L19.7413 8.46043L20.7582 8.42136L20.968 13.1712C20.981 13.4805 21.2116 13.7377 21.5171 13.7859C21.82 13.8341 22.1203 13.6602 22.2291 13.3698L24.5828 7.0558L25.5182 7.4081L22.7744 15.0193ZM26.5789 6.41635L24.4311 5.60627C24.2683 5.54505 24.0891 5.55026 23.9308 5.62255C23.7732 5.69418 23.6514 5.82572 23.5901 5.98787L22.1283 9.91066L22.0312 7.71679C22.0156 7.35798 21.7127 7.08578 21.355 7.0949L19.0281 7.18541C18.8535 7.19193 18.6894 7.26877 18.5715 7.3977C18.4542 7.52664 18.393 7.6979 18.4034 7.87177L18.8255 15.4126C18.535 15.0955 18.1057 14.6735 17.3559 14.6735C17.3403 14.6735 17.3246 14.6735 17.3077 14.6741C16.6777 14.6891 16.281 14.9906 16.0035 15.2843V10.0676H16.8198V13.5482C16.8198 13.9077 17.1116 14.1994 17.4712 14.1994C17.8314 14.1994 18.1226 13.9077 18.1226 13.5482V9.41641C18.1226 9.05629 17.8314 8.76521 17.4712 8.76521H15.3521C14.9925 8.76521 14.7006 9.05629 14.7006 9.41641V15.6483C14.6902 15.6367 14.6808 15.6266 14.6711 15.6163L14.6711 15.6162C14.6597 15.6041 14.648 15.5916 14.6336 15.5754C14.3424 15.255 13.9052 14.7744 13.1066 14.7744C13.0916 14.7744 13.0753 14.7744 13.059 14.7751C12.2308 14.7946 11.806 15.3086 11.5246 15.6492L11.5243 15.6496C11.263 15.9661 11.1738 16.0469 10.9634 16.0514H10.9516C10.7816 16.0514 10.6813 15.9622 10.4162 15.6496C10.3732 15.5988 10.325 15.5428 10.2729 15.4849C10.2717 15.48 10.2716 15.4749 10.2714 15.4698C10.2713 15.4635 10.2711 15.4572 10.2689 15.451L7.47494 6.99526L8.58955 6.6306L10.5321 12.4581C10.6292 12.7525 10.9191 12.9355 11.2298 12.8983C11.5379 12.8606 11.7757 12.6105 11.7992 12.3012L12.1555 7.60087L13.0877 7.66795L12.6486 13.7853C12.6226 14.1441 12.8929 14.456 13.2519 14.4814C13.6128 14.5003 13.9222 14.2379 13.9476 13.879L14.4336 7.11248C14.4596 6.75432 14.1899 6.4424 13.831 6.41635L11.6024 6.25486C11.2474 6.22881 10.9328 6.4971 10.9054 6.85461L10.7445 8.9775L9.62012 5.60431C9.50742 5.26504 9.14327 5.07815 8.79931 5.19146L6.44828 5.96117C6.28478 6.01456 6.14863 6.13178 6.0698 6.28611C5.99163 6.4411 5.9786 6.62018 6.03332 6.78428L8.71071 14.8871C8.70648 14.8881 8.70273 14.8884 8.69899 14.8887C8.69524 14.889 8.6915 14.8894 8.68726 14.8903C8.22149 14.9913 7.98046 15.2426 7.86059 15.436C7.67363 15.7362 7.66647 16.0788 7.71467 16.2689L10.3497 29.4758C10.4103 29.7806 10.678 30 10.9881 30H20.7551C21.0612 30 21.3257 29.7871 21.3915 29.4888L23.8233 18.4283C23.9008 18.0766 23.6787 17.7296 23.3276 17.6527C22.9778 17.5765 22.6279 17.7979 22.5511 18.1489L20.232 28.6976H11.523L9.02015 16.153C9.0892 16.1472 9.16867 16.1914 9.42208 16.491L9.42598 16.4956C9.72287 16.8464 10.1495 17.3506 10.9946 17.3538C11.8226 17.3343 12.248 16.8192 12.5288 16.4786C12.7906 16.1621 12.8799 16.0814 13.0903 16.0768C13.3261 16.0781 13.3945 16.1485 13.6688 16.4513L13.6708 16.4535C13.9626 16.7738 14.3996 17.2535 15.1964 17.2535H15.1965C15.2121 17.2535 15.2277 17.2535 15.2439 17.2529C16.0722 17.2327 16.4969 16.7187 16.7784 16.3781L16.7787 16.3777C17.0393 16.0618 17.1285 15.9811 17.339 15.9759C17.5559 15.9765 17.6438 16.0482 17.9187 16.351L17.919 16.3513L17.919 16.3513C18.2102 16.6717 18.6473 17.1526 19.4463 17.1526H19.4464C19.4614 17.1526 19.477 17.1526 19.4939 17.1519C20.3225 17.1324 20.7479 16.6173 21.0287 16.2767C21.2899 15.9609 21.3785 15.8802 21.5896 15.875C21.815 15.8678 21.8931 15.9472 22.1693 16.25L22.1696 16.2504C22.4608 16.5707 22.8979 17.0517 23.6963 17.0517H23.6964C23.712 17.0517 23.7282 17.0517 23.7445 17.051C24.1041 17.0419 24.3888 16.7436 24.3803 16.3842C24.3725 16.0853 24.1614 15.8496 23.8846 15.7792L26.9613 7.24597C27.0818 6.91126 26.9118 6.54203 26.5789 6.41635Z"
        fill-rule="evenodd"></path>
</svg>
