<svg xmlns:xlink="http://www.w3.org/1999/xlink" width="32" height="32" viewBox="0 0 32 32" fill="none" xmlns="http://www.w3.org/2000/svg">
<path fill-rule="evenodd" clip-rule="evenodd" d="M16.1146 28.7598C17.4772 28.7598 18.5851 27.7292 18.5851 26.4617V5.53827C18.5851 4.27079 17.4772 3.24018 16.1146 3.24018H15.882C14.5201 3.24018 13.4122 4.27079 13.4122 5.53827V26.4617C13.4122 27.7292 14.5201 28.7598 15.882 28.7598H16.1146ZM15.8832 2H16.1159C18.213 2 19.9195 3.58746 19.9195 5.53829V26.4617C19.9195 28.4126 18.213 30 16.1159 30H15.8832C13.7867 30 12.0802 28.4126 12.0802 26.4617V5.53829C12.0802 3.58746 13.7867 2 15.8832 2ZM8.9695 23.1242C9.13415 23.0975 9.67211 22.9636 9.67211 22.3875V9.54583C9.67211 8.96976 9.13415 8.83581 8.9695 8.80915C8.91017 8.79861 8.84818 8.79365 8.78352 8.79365C8.45888 8.79365 8.09424 8.93069 7.93559 9.33314C7.12832 11.3788 7.12832 20.5545 7.93559 22.6002C8.12557 23.082 8.61153 23.1824 8.9695 23.1242ZM6.68444 8.90607C7.06241 7.94739 8.10099 7.40666 9.20356 7.58835C10.2815 7.76694 11.0054 8.55385 11.0054 9.54663V22.3883C11.0054 23.3817 10.2815 24.168 9.20356 24.3459C9.06024 24.3695 8.91759 24.3813 8.77827 24.3813C7.84101 24.3813 7.01375 23.8629 6.68444 23.0282C5.77185 20.719 5.77185 11.2159 6.68444 8.90607ZM24.0658 22.601C23.8758 23.0828 23.3879 23.1833 23.0306 23.1256C22.8659 23.0983 22.3286 22.9644 22.3286 22.3883V9.54665C22.3286 8.97057 22.8659 8.83725 23.0306 8.80997C23.0899 8.80005 23.1532 8.79446 23.2179 8.79446C23.5425 8.79446 23.9072 8.93213 24.0658 9.33395C24.8731 11.3797 24.8731 20.5553 24.0658 22.601ZM25.3161 8.9071C24.9374 7.94781 23.9028 7.40708 22.7963 7.58939C21.7184 7.76736 20.9944 8.55426 20.9944 9.54704V22.3887C20.9944 23.3821 21.7184 24.1684 22.7969 24.3464C22.9403 24.3705 23.0816 24.3817 23.2216 24.3817C24.1595 24.3817 24.9867 23.8633 25.3161 23.0286C26.228 20.7194 26.228 11.217 25.3161 8.9071ZM17.4545 7.19535C17.4545 8.03434 16.8559 8.46903 16.4592 8.75676C16.0739 9.03643 15.9766 9.1344 15.9766 9.34028C15.9766 9.54615 16.0739 9.64412 16.4592 9.92379L16.4599 9.9243C16.8566 10.2126 17.4545 10.6473 17.4545 11.4858C17.4545 12.3248 16.8559 12.7595 16.4592 13.0472C16.0739 13.3269 15.9766 13.4249 15.9766 13.6307C15.9766 13.8366 16.0739 13.9346 16.4592 14.2143L16.4608 14.2154C16.8574 14.5038 17.4545 14.9378 17.4545 15.7757C17.4545 16.6153 16.8559 17.05 16.4592 17.3377C16.0739 17.6174 15.9766 17.7154 15.9766 17.9212C15.9766 18.1271 16.0739 18.2257 16.4592 18.5054C16.8559 18.7931 17.4545 19.2278 17.4545 20.0668C17.4545 20.9058 16.8559 21.3405 16.4592 21.6282C16.0739 21.9078 15.9766 22.0058 15.9766 22.2117C15.9766 22.4182 16.0739 22.5162 16.4592 22.7965C16.8559 23.0836 17.4545 23.5189 17.4545 24.3572C17.4545 25.1969 16.8559 25.6315 16.4592 25.9193C16.0739 26.1989 15.9766 26.2969 15.9766 26.5034C15.9766 26.8463 15.6786 27.1235 15.31 27.1235C14.942 27.1235 14.6434 26.8463 14.6434 26.5034C14.6434 25.6644 15.2427 25.2291 15.6393 24.942C16.0246 24.6617 16.1212 24.5637 16.1212 24.3572C16.1212 24.1514 16.0246 24.0534 15.6393 23.7737L15.6392 23.7737C15.2426 23.486 14.6434 23.0513 14.6434 22.2117C14.6434 21.3734 15.2426 20.9387 15.6392 20.651L15.6393 20.6509C16.0246 20.3706 16.1212 20.2726 16.1212 20.0668C16.1212 19.8603 16.0246 19.7623 15.6393 19.4826L15.6392 19.4826C15.2426 19.1949 14.6434 18.7602 14.6434 17.9212C14.6434 17.0829 15.2426 16.6482 15.6392 16.3605L15.6393 16.3604C16.0246 16.0801 16.1212 15.9822 16.1212 15.7757C16.1212 15.5698 16.0246 15.4718 15.6393 15.1922L15.6392 15.1921C15.2426 14.9044 14.6434 14.4697 14.6434 13.6307C14.6434 12.7918 15.2426 12.3571 15.6392 12.0694L15.6393 12.0693C16.0246 11.7897 16.1212 11.6917 16.1212 11.4858C16.1212 11.2793 16.0246 11.182 15.6393 10.9017L15.6392 10.9016C15.2426 10.6139 14.6434 10.1792 14.6434 9.34028C14.6434 8.50132 15.2426 8.06663 15.6392 7.7789L15.6393 7.77886C16.0246 7.4992 16.1212 7.40122 16.1212 7.19535C16.1212 6.98947 16.0246 6.8915 15.6393 6.61183L15.6392 6.61179C15.2426 6.32406 14.6434 5.88938 14.6434 5.05042C14.6434 4.70813 14.942 4.43032 15.31 4.43032C15.6786 4.43032 15.9766 4.70813 15.9766 5.05042C15.9766 5.25629 16.0739 5.35427 16.4592 5.63394C16.8559 5.92166 17.4545 6.35635 17.4545 7.19535Z" fill="#707070"></path>
</svg>