<svg xmlns:xlink="http://www.w3.org/1999/xlink" width="32" height="32" viewBox="0 0 32 32" fill="none" xmlns="http://www.w3.org/2000/svg">
<path fill-rule="evenodd" clip-rule="evenodd" d="M21.3183 14.4369C21.2343 14.518 21.1556 14.596 21.0856 14.674C20.9863 14.7864 20.9316 14.9274 20.9316 15.0734V15.1165H11.0709V15.0734C11.0709 14.9274 11.0163 14.7864 10.9163 14.674C10.8469 14.596 10.7683 14.518 10.6843 14.4369C10.3776 14.138 10.1463 13.9027 10.2316 13.3592C10.2456 13.3592 10.2576 13.3629 10.2716 13.3629C11.1083 13.3629 11.6436 12.8512 12.0749 12.4406C12.4503 12.0824 12.6963 11.8627 13.0023 11.8627C13.2763 11.8627 13.4549 12.0081 13.8016 12.3114C14.2549 12.7083 14.8769 13.2518 16.0009 13.2518C17.1263 13.2518 17.7476 12.7077 18.2009 12.3108C18.5476 12.0081 18.7256 11.8627 18.9996 11.8627C19.3056 11.8627 19.5523 12.0824 19.9276 12.44C20.3589 12.8512 20.8949 13.3629 21.7316 13.3629C21.7456 13.3629 21.7569 13.3592 21.7709 13.3592C21.8563 13.9027 21.6249 14.138 21.3183 14.4369C21.2343 14.518 21.3183 14.4369 21.3183 14.4369ZM19.1918 18.4798C19.0152 18.7824 18.9372 19.3659 18.7605 20.7756C18.4885 22.9572 17.7645 28.7514 16.0005 28.7514C14.2372 28.7514 13.5132 22.9572 13.2412 20.7756C13.0645 19.3659 12.9865 18.7824 12.8098 18.4798C12.4052 17.7833 11.5492 17.1799 11.0705 16.8797V16.3643H20.9312V16.8797C20.4525 17.1799 19.5972 17.7833 19.1918 18.4798C19.0152 18.7824 19.1918 18.4798 19.1918 18.4798ZM10.1857 9.87726C10.6117 9.52343 11.0537 9.15774 11.0537 8.62045V7.40295C11.0537 5.02473 13.6657 3.2481 16.0011 3.2481C18.3371 3.2481 20.9491 5.02473 20.9491 7.40295V8.62045C20.9491 9.15774 21.3904 9.52343 21.8171 9.87726C22.3151 10.2904 22.6677 10.6136 22.6677 11.0168C22.6677 11.5235 22.4224 12.1151 21.7317 12.1151C21.4684 12.1151 21.2357 11.9066 20.8791 11.5659C20.4344 11.1422 19.8811 10.6149 18.9997 10.6149C18.1877 10.6149 17.6904 11.0498 17.2911 11.3993C16.9051 11.7375 16.6004 12.004 16.0011 12.004C15.4031 12.004 15.0984 11.7375 14.7124 11.3993C14.3124 11.0498 13.8151 10.6149 13.0024 10.6149C12.1211 10.6149 11.5684 11.1422 11.1237 11.5665C10.767 11.9066 10.5344 12.1151 10.2717 12.1151C9.58038 12.1151 9.33438 11.5235 9.33438 11.0168C9.33438 10.6136 9.68771 10.2904 10.1857 9.87726C10.6117 9.52343 10.1857 9.87726 10.1857 9.87726ZM24 11.0167C24 10.0208 23.2487 9.39798 22.7 8.94306C22.558 8.82511 22.35 8.65288 22.2813 8.56177V7.40293C22.2813 4.52486 19.3467 2 16 2C12.654 2 9.71933 4.52486 9.71933 7.40293V8.56177C9.65067 8.65288 9.44267 8.82511 9.30067 8.94306C8.75133 9.39798 8 10.0208 8 11.0167C8 11.8592 8.368 12.5569 8.96 12.9675C8.67 14.2574 9.31533 14.9057 9.722 15.302C9.72667 15.307 9.732 15.3114 9.73667 15.3157V17.2228C9.73667 17.4431 9.86133 17.6484 10.0647 17.7601C10.396 17.9436 11.324 18.5364 11.6273 19.055C11.7067 19.2447 11.818 20.1358 11.916 20.9215C12.3673 24.5372 13.05 30 16 30C18.9507 30 19.6333 24.5372 20.084 20.9215C20.1827 20.1358 20.294 19.2447 20.3613 19.0781C20.6767 18.537 21.6053 17.9436 21.936 17.7601C22.1387 17.6484 22.264 17.4431 22.264 17.2228V15.3157C22.2687 15.3114 22.274 15.307 22.278 15.302C22.6853 14.9057 23.3307 14.2574 23.0407 12.9675C23.6327 12.5575 24 11.8592 24 11.0167C24 10.0208 24 11.0167 24 11.0167Z" fill="#707070"></path>
</svg>