<svg fill="currentColor" height="32" viewBox="0 0 48 48" width="32" xmlns="http://www.w3.org/2000/svg">
  <g transform="translate(4.8, 11.2) scale(0.8)">
    <path clip-rule="evenodd" d="M6.51729 31.9634C6.21741 31.9634 5.89754 31.8434 5.67764 31.6035C5.21783 31.1237 5.21783 30.364 5.67764 29.8842C5.97751 29.5643 6.4773 28.9646 6.33736 28.4448C6.2374 28.065 5.83757 27.7251 5.33778 27.5652C2.1591 26.6056 0 23.9067 0 20.828C0 18.5689 1.15952 16.4498 3.25864 14.8505C3.53853 14.6506 3.55852 14.5306 3.55852 13.9509C3.55852 13.3711 3.53853 13.2712 3.25864 13.0513C1.15952 11.4519 0 9.33277 0 7.07371C0 5.21449 0.739692 3.45524 2.07913 2.0958C3.41858 0.736371 5.15785 -0.0032959 6.99709 -0.0032959C10.7755 -0.0032959 13.9742 2.85552 13.9742 6.25411C13.9742 6.7539 13.9742 7.47357 16.5331 7.47357H31.4669C34.0258 7.47357 34.0258 6.73391 34.0258 6.25411C34.0258 2.85552 37.2245 -0.0032959 41.0029 -0.0032959C42.8422 -0.0032959 44.5814 0.736371 45.9209 2.0958C47.2603 3.45524 48 5.21449 48 7.07371C48 9.33277 46.8405 11.4519 44.7414 13.0513C44.4615 13.2512 44.4415 13.3711 44.4415 13.9509C44.4415 14.5306 44.4615 14.6306 44.7414 14.8505C46.8405 16.4498 48 18.5689 48 20.828C48 22.6872 47.2603 24.4465 45.9209 25.806C44.5814 27.1654 42.8422 27.9051 41.0029 27.9051C37.2245 27.9051 34.0258 25.0462 34.0258 21.6477C34.0258 21.1479 34.0258 20.4282 31.4669 20.4282H16.5331C13.9742 20.4282 13.9742 21.1679 13.9742 21.6477C13.9742 23.0671 13.4144 24.4465 12.3948 25.586C11.955 26.0858 11.1953 26.1058 10.6955 25.666C10.2157 25.2062 10.1758 24.4465 10.6356 23.9467C11.2553 23.267 11.5752 22.4673 11.5752 21.6677C11.5752 19.2487 13.2345 18.0092 16.5131 18.0092H31.4469C34.7255 18.0092 36.4048 19.2487 36.4048 21.6677C36.4048 23.7468 38.504 25.506 40.9829 25.506C42.1824 25.506 43.3219 25.0062 44.2016 24.1266C45.0812 23.227 45.561 22.0675 45.561 20.868C45.561 18.9688 44.3015 17.6293 43.262 16.8297C42.0425 15.91 42.0025 14.7505 42.0025 14.0308V13.9509C42.0025 13.2112 42.0425 12.0716 43.262 11.152C44.3015 10.3524 45.561 9.01294 45.561 7.11373C45.561 5.89424 45.0812 4.75471 44.2016 3.85508C43.3219 2.95546 42.1824 2.47565 40.9829 2.47565C38.504 2.47565 36.4048 4.23495 36.4048 6.31408C36.4048 8.73307 34.7455 9.97253 31.4469 9.97253H16.5131C13.2345 9.97253 11.5752 8.73307 11.5752 6.31408C11.5752 4.23495 9.47605 2.47565 6.99709 2.47565C5.79759 2.47565 4.65806 2.97545 3.77843 3.85508C2.89879 4.75471 2.399 5.91423 2.399 7.11373C2.399 9.01294 3.65848 10.3524 4.69804 11.152C5.91754 12.0716 5.95752 13.2312 5.95752 13.9509V14.0308C5.95752 14.7705 5.91754 15.91 4.69804 16.8297C3.63848 17.6293 2.399 18.9688 2.399 20.868C2.399 22.8872 3.81841 24.6264 6.01749 25.2862C7.33694 25.686 8.35652 26.6855 8.65639 27.885C8.83632 28.6247 8.91629 30.0841 7.35694 31.6435C7.11704 31.8834 6.81716 32.0033 6.51729 32.0033"
          fill-rule="evenodd"/>
  </g>
</svg>
